<svg id="folder-code" enable-background="new 0 0 300 300" height="512" viewBox="0 0 300 300" width="512" xmlns="http://www.w3.org/2000/svg"><g><circle cx="116" cy="122" fill="#e5efef" r="86"/><circle cx="116" cy="122" fill="#e5efef" r="86"/><g fill="#4c241d"><path d="m155.656 81.656c-1.023 0-2.047-.391-2.828-1.172l-11.312-11.312c-1.562-1.562-1.562-4.094 0-5.656s4.094-1.562 5.656 0l11.312 11.312c1.562 1.562 1.562 4.094 0 5.656-.781.782-1.804 1.172-2.828 1.172z"/><path d="m144.344 81.656c-1.023 0-2.047-.391-2.828-1.172-1.562-1.562-1.562-4.094 0-5.656l11.312-11.312c1.562-1.562 4.094-1.562 5.656 0s1.562 4.094 0 5.656l-11.312 11.312c-.781.782-1.805 1.172-2.828 1.172z"/><circle cx="194" cy="88" r="4"/><circle cx="182" cy="44" r="4"/></g><g><path d="m242 260h-160c-6.627 0-12-5.373-12-12v-8h184v8c0 6.627-5.373 12-12 12z" fill="#e2e2e2"/><path d="m242 264h-160c-8.822 0-16-7.176-16-16v-8c0-2.211 1.791-4 4-4h184c2.209 0 4 1.789 4 4v8c0 8.824-7.178 16-16 16zm-168-20v4c0 4.41 3.588 8 8 8h160c4.412 0 8-3.59 8-8v-4z" fill="#4c241d"/></g><g><path d="m110.76 248h140.286c8.259 0 14.955-6.546 14.955-14.621v-109.379c0-8.837-7.163-16-16-16h-116.858l-8.875-18.408c-2.678-3.666-7.003-5.842-11.611-5.842h-44.568c-7.781 0-14.089 6.167-14.089 13.774v9.69 17.598 108.567c0 8.075 6.695 14.621 14.955 14.621h21.147" fill="#a9ba5a"/><path d="m251.045 252h-140.285c-2.209 0-4-1.789-4-4s1.791-4 4-4h140.285c6.041 0 10.955-4.766 10.955-10.621v-109.379c0-6.617-5.383-12-12-12h-116.857c-1.535 0-2.936-.879-3.604-2.262l-8.703-18.051c-1.934-2.473-4.967-3.938-8.18-3.938h-44.568c-5.563.001-10.088 4.384-10.088 9.774v135.855c0 5.856 4.914 10.622 10.955 10.622h21.146c2.209 0 4 1.789 4 4s-1.791 4-4 4h-21.146c-10.451 0-18.955-8.352-18.955-18.621v-135.856c0-9.801 8.113-17.773 18.088-17.773h44.568c5.871 0 11.42 2.797 14.842 7.484.143.195.268.402.373.621l7.783 16.145h114.346c11.027 0 20 8.973 20 20v109.379c0 10.269-8.504 18.621-18.955 18.621z" fill="#4c241d"/></g><path d="m134 112h-28c-2.209 0-4-1.789-4-4s1.791-4 4-4h28c2.209 0 4 1.789 4 4s-1.791 4-4 4z" fill="#4c241d"/><path d="m137.996 196c-.834 0-1.676-.262-2.396-.801l-16-12c-1.008-.754-1.6-1.941-1.6-3.199s.592-2.445 1.6-3.199l16-12c1.775-1.324 4.277-.969 5.6.801 1.326 1.766.969 4.273-.799 5.598l-11.735 8.8 11.734 8.801c1.768 1.324 2.125 3.832.799 5.598-.785 1.05-1.986 1.601-3.203 1.601z" fill="#4c241d"/><path d="m182.004 196c-1.217 0-2.418-.551-3.203-1.602-1.326-1.766-.969-4.273.799-5.598l11.734-8.8-11.734-8.801c-1.768-1.324-2.125-3.832-.799-5.598 1.326-1.77 3.832-2.125 5.6-.801l16 12c1.008.754 1.6 1.941 1.6 3.199s-.592 2.445-1.6 3.199l-16 12c-.721.54-1.563.802-2.397.802z" fill="#4c241d"/><path d="m154.004 208c-.322 0-.648-.039-.975-.121-2.143-.535-3.445-2.707-2.91-4.848l12-48c.539-2.148 2.711-3.441 4.852-2.91 2.143.535 3.445 2.707 2.91 4.848l-12 48c-.455 1.82-2.086 3.031-3.877 3.031z" fill="#4c241d"/></g></svg>